<svg height="512pt" viewBox="0 0 512 512.001" width="512pt" xmlns="http://www.w3.org/2000/svg"><path d="m472.566406 398.277344v-114.035156c2.464844-3.007813 3.945313-6.84375 3.945313-11.023438v-15.773438c0-4.183593-1.480469-8.019531-3.945313-11.027343v-56.011719c0-6.035156-.808594-12.019531-2.398437-17.789062-1.113281-4.03125-5.277344-6.398438-9.316407-5.285157-4.03125 1.113281-6.398437 5.285157-5.285156 9.316407 1.230469 4.457031 1.851563 9.085937 1.851563 13.761718v49.601563h-61.429688c-29.585937 0-42.144531-21.78125-42.644531-22.671875-1.59375-2.917969-4.894531-4.457032-8.160156-3.792969-3.253906.664063-5.699219 3.371094-6.027344 6.679687-.078125.804688-2.136719 19.785157-18.09375 19.785157h-18.054688v-38.757813c0-21.101562 15.75-38.582031 36.113282-41.332031v29.5c0 4.183594 3.390625 7.574219 7.574218 7.574219 4.183594 0 7.574219-3.390625 7.574219-7.574219v-38.445313c0-6.695312 5.445313-12.144531 12.140625-12.144531h39.433594c12.238281 0 24.101562 4.359375 33.40625 12.28125 3.183594 2.710938 7.964844 2.324219 10.675781-.859375 2.710938-3.183594 2.328125-7.964844-.855469-10.675781-12.042968-10.25-27.394531-15.894531-43.226562-15.894531h-39.433594c-12.851562 0-23.652344 8.929687-26.535156 20.90625-29.09375 2.46875-52.015625 26.9375-52.015625 56.660156v45.164062c-2.460937 3.007813-3.945313 6.847657-3.945313 11.027344v15.773438c0 4.179687 1.484376 8.019531 3.945313 11.027344v114.035156c-12.269531 5.484375-22.28125 14.320312-29.148437 25.183594-6.660157-16.488282-19.789063-29.914063-37.082032-36.828126l-56.636718-22.65625v-32.660156c18.207031-10.496094 31.03125-29.324218 33.1875-51.25h12.472656c9.613281 0 17.433594-7.820312 17.433594-17.429687v-15.773438c0-4.179687-1.484376-8.019531-3.945313-11.027343v-56.007813c0-36.792969-29.933594-66.722656-66.722656-66.722656h-39.433594c-12.851563 0-23.65625 8.929687-26.535156 20.910156-11.25.96875-22.058594 5.289063-30.863281 12.398437-3.253907 2.632813-3.761719 7.398438-1.132813 10.652344s7.394531 3.761719 10.652344 1.132813c6.019531-4.859375 13.050781-7.875 20.589843-8.875v29.519531c0 4.179688 3.390626 7.570312 7.574219 7.570312 4.183594 0 7.574219-3.390624 7.574219-7.570312v-38.449219c0-6.695312 5.445312-12.140625 12.140625-12.140625h39.433594c28.441406 0 51.574219 23.136719 51.574219 51.574219v49.601563h-61.433594c-29.582032 0-42.140625-21.78125-42.640625-22.671876-1.59375-2.917968-4.894531-4.453124-8.160157-3.789062-3.253906.660156-5.699218 3.367188-6.027343 6.675781-.078125.808594-2.136719 19.785157-18.09375 19.785157h-18.054688v-38.757813c0-2.714844.261719-5.429687.777344-8.066406.800781-4.105469-1.875-8.082031-5.980469-8.886719-4.105468-.804688-8.082031 1.875-8.886718 5.980469-.703126 3.589843-1.058594 7.285156-1.058594 10.972656v45.164063c-2.460938 3.007812-3.945313 6.847656-3.945313 11.027343v15.773438c0 9.609375 7.820313 17.429687 17.433594 17.429687h12.46875c2.160156 21.925782 14.984375 40.753906 33.191406 51.25v32.660156l-24.082031 9.632813s-32.554688 13.023437-32.554688 13.023437c-25.480468 10.191407-41.945312 34.507813-41.945312 61.953126v55.839843c0 4.183594 3.390625 7.574219 7.574219 7.574219h496.851562c4.183594 0 7.574219-3.390625 7.574219-7.574219v-45.261719c0-26.53125-15.386719-50.136718-39.433594-60.886718zm-59.148437-23.71875v-32.660156c18.210937-10.496094 31.03125-29.324219 33.191406-51.25h10.808594v101.507812zm-110.410157 17.597656v-101.507812h10.8125c2.15625 21.925781 14.980469 40.753906 33.1875 51.25v32.660156zm54.386719-5.4375c2.875-1.152344 4.761719-3.9375 4.761719-7.035156v-31.402344c5.746094 1.617188 11.796875 2.5 18.054688 2.5 6.257812 0 12.3125-.882812 18.058593-2.5v31.402344c0 3.097656 1.886719 5.882812 4.761719 7.035156l29.335938 11.734375c-4.484376 15.304687-26.359376 27.035156-52.15625 27.035156-25.792969 0-47.671876-11.730469-52.15625-27.035156zm101.683594-131.558594c1.261719 0 2.285156 1.023438 2.285156 2.285156v15.773438c0 1.257812-1.023437 2.28125-2.285156 2.28125h-12.140625v-20.339844zm-109.3125-18.367187c8.753906 8.523437 23.738281 18.367187 46.222656 18.367187h35.800781v28.898438c0 28.4375-23.136718 51.578125-51.574218 51.578125-28.441406 0-51.578125-23.140625-51.578125-51.578125v-29.734375c10.570312-2.414063 17.238281-9.785157 21.128906-17.53125zm-36.273437 38.707031h-12.144532c-1.257812 0-2.285156-1.023438-2.285156-2.28125v-15.773438c0-1.261718 1.027344-2.285156 2.285156-2.285156h12.144532zm-208.0625 102.054688 13.019531 8.007812-16.660157 12.769531c-3.90625-2.714843-9.839843-7.476562-13.996093-13.722656zm52.714843 0 17.640625 7.054687c-4.15625 6.246094-10.09375 11.007813-14 13.722656l-16.65625-12.769531zm54.792969-114.917969c0 1.261719-1.023438 2.285156-2.285156 2.285156h-12.140625v-20.34375h12.140625c1.261718 0 2.285156 1.027344 2.285156 2.285156zm-162.300781 0v-15.773438c0-1.257812 1.027343-2.285156 2.285156-2.285156h12.144531v20.34375h-12.144531c-1.257813 0-2.285156-1.023437-2.285156-2.285156zm29.574219 10.84375v-29.734375c10.570312-2.414063 17.238281-9.785156 21.128906-17.53125 8.753906 8.519531 23.738281 18.363281 46.21875 18.363281h35.804687v28.902344c0 28.4375-23.136719 51.574219-51.574219 51.574219-28.441406 0-51.578124-23.132813-51.578124-51.574219zm51.578124 66.722656c6.257813 0 12.308594-.882813 18.054688-2.503906v27.171875l-18.054688 11.113281-18.058593-11.113281v-27.171875c5.746093 1.621093 11.800781 2.503906 18.058593 2.503906zm-116.640624 108.382813c0-21.214844 12.726562-40.011719 32.421874-47.890626l25.957032-10.382812c8.667968 14.929688 24.335937 23.5 25.097656 23.910156 1.125.605469 2.359375.902344 3.585938.902344 1.632812 0 3.257812-.527344 4.609374-1.5625l17.394532-13.332031v34.925781c0 4.183594 3.390625 7.574219 7.574218 7.574219 4.179688 0 7.574219-3.390625 7.574219-7.574219v-34.925781l17.390625 13.332031c1.351563 1.035156 2.976563 1.5625 4.609375 1.5625 1.226563 0 2.460938-.296875 3.585938-.902344.761719-.410156 16.429687-8.980468 25.097656-23.910156l25.960937 10.382812c19.691407 7.878907 32.417969 26.675782 32.417969 47.886719v48.269531h-36.113281v-12.140624c0-4.183594-3.390625-7.574219-7.574219-7.574219-4.183593 0-7.574219 3.390625-7.574219 7.574219v12.144531h-130.753906v-12.144531c0-4.183594-3.390625-7.574219-7.574218-7.574219-4.183594 0-7.574219 3.390625-7.574219 7.574219v12.144531h-36.113281zm481.703124 48.265624h-36.113281v-12.140624c0-4.183594-3.390625-7.574219-7.574219-7.574219-4.183593 0-7.574218 3.390625-7.574218 7.574219v12.144531h-130.753906v-12.144531c0-4.183594-3.390626-7.574219-7.574219-7.574219-4.183594 0-7.574219 3.390625-7.574219 7.574219v12.144531h-36.113281v-37.691407c0-21.210937 12.726562-40.007812 32.421875-47.886718l17.988281-7.195313c7.191406 21.152344 33.949219 36.558594 66.230469 36.558594 32.277344 0 59.035156-15.40625 66.230468-36.558594l17.988282 7.195313c19.691406 7.878906 32.417968 26.675781 32.417968 47.886718zm0 0"/><path d="m186.078125 31.28125c3.753906 1.847656 8.292969.308594 10.144531-3.445312 3.859375-7.824219 11.671875-12.6875 20.394532-12.6875 8.097656 0 15.640624 4.367187 19.691406 11.394531 1.351562 2.347656 3.855468 3.792969 6.5625 3.792969 2.707031 0 5.210937-1.445313 6.5625-3.792969 4.050781-7.027344 11.597656-11.394531 19.695312-11.394531 12.527344 0 22.71875 10.195312 22.71875 22.722656 0 3.386718-.648437 6.953125-1.914062 10.660156-2.710938-1.058594-5.625-1.644531-8.617188-1.644531-13.125 0-23.804687 10.679687-23.804687 23.804687 0 5.140625 1.519531 10.085938 3.910156 14.691406-7.410156 6.390626-14.390625 11.351563-18.554687 14.152344-9.316407-6.261718-32.753907-23.332031-43.582032-43.167968-2.007812-3.671876-6.609375-5.023438-10.277344-3.019532-3.671874 2.003906-5.023437 6.605469-3.019531 10.277344 15.550781 28.484375 51.429688 50.488281 52.953125 51.410156 1.207032.734375 2.566406 1.101563 3.929688 1.101563 1.363281 0 2.722656-.367188 3.929687-1.101563.523438-.316406 11.242188-6.871094 23.492188-17.304687 8.789062 9.582031 19.210937 16.121093 21.160156 17.304687 1.207031.734375 2.570313 1.101563 3.929687 1.101563 1.363282 0 2.722657-.367188 3.933594-1.101563 3.472656-2.109375 33.9375-21.273437 33.9375-44.34375 0-13.125-10.679687-23.804687-23.804687-23.804687-1.160157 0-2.308594.097656-3.441407.265625.65625-3.136719.988282-6.238282.988282-9.28125 0-20.882813-16.988282-37.871094-37.871094-37.871094-9.890625 0-19.285156 3.90625-26.253906 10.601562-6.96875-6.695312-16.363282-10.601562-26.253906-10.601562-14.535157 0-27.554688 8.101562-33.980469 21.136719-1.851563 3.753906-.308594 8.292969 3.441406 10.144531zm132.03125 39.410156c0 10.476563-14.1875 22.722656-22.722656 28.78125-8.535157-6.058594-22.722657-18.304687-22.722657-28.78125 0-4.773437 3.882813-8.65625 8.65625-8.65625 3.082032 0 5.957032 1.664063 7.503907 4.347656 1.351562 2.34375 3.855469 3.789063 6.5625 3.789063s5.207031-1.445313 6.558593-3.789063c1.546876-2.683593 4.421876-4.347656 7.507813-4.347656 4.769531 0 8.65625 3.882813 8.65625 8.65625zm0 0"/></svg>