<svg id="Capa_1" enable-background="new 0 0 512 512" height="512" viewBox="0 0 512 512" width="512" xmlns="http://www.w3.org/2000/svg"><g><g><g><path d="m320.121 430.936c-19.299 0-35 15.702-35 35.001s15.701 35.001 35 35.001c19.315 0 35.029-15.702 35.029-35.001s-15.713-35.001-35.029-35.001zm0 50.002c-8.271 0-15-6.729-15-15.001s6.729-15.001 15-15.001c8.287 0 15.029 6.729 15.029 15.001s-6.741 15.001-15.029 15.001z"/><path d="m379.681 90.882c4.687 2.919 10.854 1.484 13.774-3.205 5.94-9.542 17.27-15.871 27.658-18.038-1.183 4.958-1.854 9.802-1.982 14.389-.427 15.054 7.228 29.349 19.501 36.418 5.148 2.965 10.707 4.441 16.339 4.441 6.346 0 12.784-1.876 18.82-5.61 7.611-4.7 12.646-12.506 14.176-21.981 1.715-10.622-1.212-22.628-7.299-29.893-7.836-9.311-20.162-13.269-31.343-15.615 6.89-14.202 15.411-26.011 30.133-29.907 5.339-1.413 8.521-6.886 7.108-12.226-1.413-5.339-6.884-8.521-12.226-7.108-24.541 6.495-36.779 26.458-45.679 46.276-18.174.036-40.551 9.596-52.186 28.286-2.918 4.687-1.483 10.854 3.206 13.773zm61.871-20.236c8.798 1.649 19.277 4.246 23.8 9.619 2.059 2.457 3.742 8.448 2.871 13.843-.607 3.76-2.269 6.503-4.947 8.157-5.164 3.194-10.096 3.481-14.662.851-5.895-3.395-9.708-10.838-9.491-18.525.118-4.246.96-9.032 2.429-13.945z"/><path d="m355.845 217.457c2.559 0 5.119-.977 7.071-2.929 32.304-32.305 76.636-44.23 118.584-31.903 5.303 1.559 10.857-1.475 12.414-6.775 1.557-5.298-1.476-10.856-6.774-12.414-49.082-14.424-100.807-.611-138.366 36.95-3.905 3.905-3.905 10.237 0 14.142 1.953 1.952 4.512 2.929 7.071 2.929z"/><path d="m36.111 218.966c19.3 0 35.001-15.714 35.001-35.03 0-19.3-15.701-35.001-35.001-35.001s-35.001 15.702-35.001 35.002c0 19.315 15.701 35.029 35.001 35.029zm0-50.031c8.271 0 15.001 6.729 15.001 15.001 0 8.288-6.729 15.03-15.001 15.03s-15.001-6.742-15.001-15.03c0-8.271 6.73-15.001 15.001-15.001z"/><path d="m505.73 403.465-32.639-18.049-18.049-32.667c-1.76-3.185-5.111-5.163-8.75-5.164-.001 0-.002 0-.003 0-3.638 0-6.989 1.976-8.75 5.159l-18.077 32.67-32.642 18.051c-3.184 1.761-5.161 5.112-5.161 8.751s1.977 6.99 5.161 8.751l32.642 18.05 18.077 32.671c1.761 3.184 5.112 5.159 8.75 5.159h.003c3.639-.001 6.99-1.979 8.75-5.164l18.049-32.667 32.639-18.049c3.184-1.761 5.161-5.112 5.161-8.751s-1.977-6.99-5.161-8.751zm-44.838 19.443c-1.647.911-3.003 2.268-3.914 3.915l-10.695 19.358-10.714-19.363c-.91-1.645-2.266-3-3.911-3.91l-19.334-10.691 19.334-10.692c1.645-.91 3-2.265 3.911-3.91l10.714-19.363 10.695 19.357c.91 1.647 2.267 3.004 3.914 3.915l19.334 10.692z"/><path d="m35.974 73.382 32.643 18.051 18.078 32.645c1.762 3.182 5.111 5.156 8.748 5.156h.003c3.638-.001 6.988-1.978 8.749-5.161l18.049-32.641 32.64-18.049c3.183-1.76 5.16-5.11 5.161-8.748s-1.973-6.989-5.155-8.751l-32.644-18.078-18.05-32.644c-1.761-3.184-5.111-5.16-8.749-5.161-.001 0-.002 0-.003 0-3.636 0-6.986 1.974-8.748 5.156l-18.081 32.646-32.647 18.08c-3.182 1.762-5.156 5.113-5.155 8.751.001 3.637 1.977 6.988 5.161 8.748zm44.843-19.474c1.642-.909 2.994-2.262 3.903-3.904l10.716-19.351 10.697 19.345c.909 1.645 2.263 2.999 3.906 3.909l19.351 10.716-19.346 10.698c-1.646.91-3.002 2.266-3.912 3.912l-10.696 19.347-10.716-19.351c-.91-1.644-2.265-2.998-3.909-3.907l-19.345-10.697z"/><path d="m199.928 308.677c-4.94-2.47-10.947-.468-13.417 4.472s-.468 10.947 4.472 13.417l.057.028c1.432.716 2.952 1.055 4.447 1.055 3.664 0 7.187-2.034 8.941-5.542 2.47-4.94.44-10.961-4.5-13.43z"/></g></g><path d="m378.756 301.988c-5.152-9.386-11.373-19.226-18.491-29.309 24.102-9.666 50.578-11.187 76.165-3.652 5.294 1.558 10.857-1.469 12.417-6.767 1.561-5.298-1.469-10.858-6.767-12.418-31.782-9.36-64.678-6.846-94.128 6.295-12.506-15.992-26.98-32.308-42.818-48.178 13.685-20.691 23.768-43.26 29.718-66.815 9.251-36.624 8.518-75.108-2.119-111.292-1.559-5.299-7.12-8.332-12.415-6.774-5.299 1.558-8.332 7.116-6.774 12.415 15.939 54.221 7.228 110.836-23.028 158.324-11.148-10.412-22.403-20.084-33.509-28.813 13.08-29.405 15.58-62.244 6.253-93.98-1.557-5.299-7.115-8.331-12.414-6.775-5.299 1.557-8.332 7.115-6.775 12.414 7.501 25.526 6.002 51.931-3.591 75.975-10.392-7.379-20.531-13.814-30.191-19.117-33.11-18.175-57.308-21.081-69.982-8.407-5.554 5.554-8.116 13.323-7.714 23.084l-130.85 350.302c-1.371 3.669-.473 7.801 2.297 10.571 1.91 1.91 4.466 2.929 7.073 2.929 1.174 0 2.358-.207 3.498-.633l352.372-131.661c8.401-.18 15.186-2.748 20.181-7.735 12.672-12.674 9.766-36.873-8.408-69.983zm-280.246-5.375c3.916 1.722 7.496 4.167 10.583 7.254 13.543 13.543 13.543 35.581-.007 49.131-9.286 9.304-22.758 12.414-34.867 8.637zm1.027 161.672c-.386-9.529 3.171-19.028 10.098-25.939 6.532-6.532 15.219-10.129 24.462-10.129s17.93 3.597 24.462 10.129c.929.928 1.797 1.899 2.605 2.912zm198.68-74.236c-18.724-9.392-41.059-24.782-63.391-43.72-4.211-3.572-10.522-3.052-14.095 1.159-3.572 4.212-3.053 10.522 1.159 14.095 17.912 15.189 35.44 27.949 51.671 37.679l-93.075 34.777c-2.197-3.544-4.788-6.839-7.784-9.835-10.31-10.31-24.02-15.987-38.604-15.987-14.585 0-28.295 5.678-38.596 15.979-12.475 12.447-18.026 30.221-15.3 47.314l-52.05 19.448 39.062-104.572c5.643 1.889 11.487 2.825 17.309 2.825 14.15 0 28.153-5.497 38.713-16.078 21.341-21.341 21.341-56.066 0-77.408-5.135-5.135-11.143-9.135-17.725-11.863l14.318-38.329c9.74 16.238 22.495 33.769 37.663 51.677 1.978 2.335 4.798 3.537 7.636 3.537 2.284 0 4.579-.778 6.458-2.369 4.214-3.57 4.737-9.88 1.167-14.094-18.906-22.322-34.295-44.658-43.718-63.398l12.64-33.837c2.013 4.485 4.35 9.166 7.027 14.046 16.01 29.181 42.295 62.721 74.013 94.441 31.724 31.725 65.264 58.015 94.441 74.03 5.387 2.957 10.529 5.494 15.433 7.641zm74.719-26.314c-.613.613-3.654 2.287-9.123 1.806-7.39-.529-19.318-3.93-36.974-13.62-27.554-15.123-59.478-40.202-89.893-70.617-30.408-30.409-55.481-62.333-70.6-89.891-8.729-15.911-12.349-27.163-13.365-34.636 0 0-1.656-8.223 1.56-11.433 1.694-1.69 5.501-1.862 7.068-1.881 7.142-.086 19.618 3.062 38.997 13.7 9.79 5.374 20.134 12.011 30.764 19.691-5.266 8.652-11.671 16.839-19.199 24.367-3.905 3.905-3.905 10.237 0 14.142 1.953 1.953 4.512 2.929 7.071 2.929s5.119-.977 7.071-2.929c8.162-8.162 15.199-16.994 21.072-26.321 10.398 8.31 20.94 17.489 31.393 27.355-5.356 6.84-11.192 13.442-17.509 19.759-3.905 3.905-3.905 10.237 0 14.142 1.953 1.953 4.512 2.929 7.071 2.929s5.119-.977 7.071-2.929c6.326-6.326 12.244-12.956 17.735-19.847 13.504 13.683 25.903 27.635 36.787 41.326-9.29 5.862-18.09 12.879-26.226 21.014-3.905 3.905-3.905 10.237 0 14.142 1.953 1.953 4.512 2.929 7.071 2.929s5.119-.977 7.071-2.929c7.489-7.489 15.628-13.867 24.225-19.118 7.404 10.312 13.813 20.346 19.034 29.859 16.231 29.56 14.831 43.059 11.828 46.061z"/></g></svg>