<svg height="480pt" viewBox="0 0 480.01328 480" width="480pt" xmlns="http://www.w3.org/2000/svg"><path d="m463.988281 433.363281v-177.363281c0-4.417969-3.582031-8-8-8h-89.164062c.730469-2.605469 1.125-5.292969 1.167969-8-.046876-12.261719-7.097657-23.421875-18.152344-28.726562 1.398437-3.59375 2.125-7.414063 2.152344-11.273438-.027344-15.101562-10.59375-28.132812-25.359376-31.285156.859376-2.828125 1.316407-5.757813 1.359376-8.710938 0-17.675781-14.328126-32-32-32v-8c0-63.925781-52.335938-119.9960935-111.996094-119.9960935-59.664063 0-111.996094 56.0703125-111.996094 119.9960935v8c-17.675781 0-32 14.324219-32 32 .039062 2.953125.5 5.882813 1.359375 8.710938-14.769531 3.148437-25.332031 16.183594-25.359375 31.285156.023438 3.859375.753906 7.679688 2.152344 11.273438-15.867188 7.550781-22.609375 26.53125-15.058594 42.398437 4.003906 8.417969 11.5 14.652344 20.507812 17.0625-14.605468 8.621094-23.5742182 24.304687-23.601562 41.265625v159.992188c0 4.417968 3.582031 8 8 8h447.988281c13.253907.007812 24.003907-10.730469 24.011719-23.984376.007812-10.179687-6.410156-19.257812-16.011719-22.644531zm-64-129.363281v-40h16v63.996094c0 4.417968-3.582031 8-8 8s-8-3.582032-8-8zm-31.996093-40h15.996093v40c0 4.417969-3.582031 8-8 8s-7.996093-3.582031-7.996093-8zm-16-24c0 2.824219-.789063 5.597656-2.273438 8h-27.429688c-1.484374-2.40625-2.277343-5.175781-2.296874-8 .019531-2.914062.847656-5.769531 2.398437-8.238281 6.519531-.476563 12.726563-2.960938 17.777344-7.105469 6.941406 1.875 11.777343 8.152344 11.824219 15.34375zm-32-56c8.835937 0 16 7.164062 16 16 0 8.839844-7.164063 16-16 16-8.835938 0-16-7.160156-16-16 .023437-3.835938 1.445312-7.535156 4-10.398438 2.988281-1.242187 5.769531-2.941406 8.238281-5.03125 1.226562-.347656 2.488281-.539062 3.761719-.570312zm-258.113282 44.703125c14.195313-6.53125 21.351563-22.570313 16.734375-37.5 5.1875-1.117187 10.007813-3.511719 14.03125-6.96875 7.890625 16.460937 19.230469 31.03125 33.25 42.71875.6875.566406 1.40625 1.046875 2.101563 1.597656v43.449219h-53.996094c-6.4375-4.265625-13.820312-6.886719-21.503906-7.632812 7.253906-6.015626 11.464844-14.941407 11.503906-24.367188-.007812-3.863281-.726562-7.691406-2.121094-11.296875zm34.488282-94.140625c31.957031-20.886719 67.316406-36.03125 104.484374-44.75 4.792969 26.703125 28.007813 46.152344 55.140626 46.191406h15.617187c-1.839844 30.582032-16.226563 59.050782-39.757813 78.667969-27.71875 23.109375-67.992187 23.109375-95.710937 0-23.886719-19.957031-38.3125-49.015625-39.773437-80.109375zm143.625 93.996094c.699218-.542969 1.417968-1.023438 2.105468-1.597656 14.019532-11.695313 25.363282-26.261719 33.261719-42.71875 4.019531 3.453124 8.835937 5.847656 14.015625 6.960937-4.589844 14.925781 2.5625 30.945313 16.738281 37.492187v.007813c-4.277343 10.949219-2.003906 23.375 5.878907 32.097656v3.933594c-6.4375 1.15625-12.5625 3.628906-18 7.265625h-54zm46.542968-81.355469c2.722656-2.0625 6.042969-3.183594 9.457032-3.199219 8.835937 0 16 7.160156 16 16 0 8.835938-7.164063 15.996094-16 15.996094-5.941407-.070312-11.335938-3.472656-13.96875-8.796875 2.039062-6.535156 3.546874-13.226563 4.511718-20zm-198.539062-27.199219c0-55.398437 44.855468-103.996094 96-103.996094 51.140625 0 95.996094 48.597657 95.996094 103.996094h-24c-22.078126-.027344-39.972657-17.921875-39.996094-40-.003906-4.417968-3.585938-8-8.003906-8-.582032 0-1.164063.066406-1.734376.191406l-4.800781 1.074219c-40.371093 8.914063-78.808593 25.039063-113.460937 47.597657zm-15.996094 24c3.425781.011719 6.757812 1.132813 9.492188 3.199219.984374 6.734375 2.5 13.378906 4.539062 19.871094-2.605469 5.398437-8.039062 8.855469-14.03125 8.925781-8.839844 0-16-7.160156-16-15.996094 0-8.839844 7.164062-16 16-16zm-24 39.996094c1.28125.039062 2.550781.238281 3.78125.59375 2.46875 2.082031 5.238281 3.769531 8.21875 5.007812 2.554688 2.863282 3.976562 6.5625 4 10.398438 0 8.839844-7.164062 16-16 16s-16-7.160156-16-16c0-8.835938 7.164062-16 16-16zm-32 56c.050781-7.199219 4.902344-13.476562 11.855469-15.34375 5.039062 4.140625 11.238281 6.621094 17.742187 7.105469 1.550782 2.46875 2.382813 5.324219 2.402344 8.238281 0 8.835938-7.164062 16-16 16s-16-7.164062-16-16zm64 223.992188h-64v-151.992188c0-17.675781 14.328125-32 32-32 5.644531.035156 11.175781 1.605469 16 4.542969v43.765625c.992188 19.371094 6.46875 38.25 16 55.144531zm0-175.992188h55.996094c4.417968 0 8-3.582031 8-8v-41.359375c25.203125 12.488281 54.792968 12.488281 80 0v41.359375c0 4.417969 3.578125 8 7.996094 8h56v39.6875c-1.011719 19.257812-7.023438 37.917969-17.4375 54.148438-9.761719-10.328126-23.882813-21.839844-38.5625-21.839844-14.625.027344-28.664063 5.769531-39.117188 16h-17.757812c-10.457032-10.230469-24.492188-15.972656-39.121094-16-14.695313 0-28.796875 11.535156-38.589844 21.871094-10.382812-16.140626-16.382812-34.707032-17.40625-53.871094zm180.890625 106.914062c-18.832031 23.191407-47.023437 36.785157-76.894531 37.082032-29.871094-.300782-58.058594-13.882813-76.910156-37.054688 10.605468-11.800781 21.375-18.945312 28.910156-18.945312 11.359375.027344 22.175781 4.878906 29.75 13.34375 1.519531 1.691406 3.683594 2.65625 5.953125 2.65625h24.589843c2.273438 0 4.4375-.964844 5.953126-2.65625 7.578124-8.464844 18.390624-13.316406 29.75-13.34375 7.53125 0 18.296874 7.136718 28.898437 18.917968zm11.101563 69.078126h-175.996094v-57.683594c21.785156 26.144531 53.96875 41.390625 88 41.6875 34.042968-.292969 66.230468-15.558594 87.996094-41.738282zm25.472656 0h-9.472656v-80.636719c9.539062-16.96875 15.015624-35.917969 16-55.359375v-43.460938c2.5-1.488281 5.191406-2.625 8-3.375v152.203125c-9.582032 3.402344-15.988282 12.464844-16 22.632813.027343 2.730468.523437 5.4375 1.472656 7.996094zm158.523437 0h-135.996093c-4.417969 0-8-3.578126-8-7.996094 0-4.417969 3.582031-8 8-8 4.417968 0 8-3.582032 8-8v-175.996094h24v40c0 13.253906 10.742187 23.996094 23.996093 23.996094 2.734375-.023438 5.441407-.523438 8-1.46875v1.46875c0 13.257812 10.746094 24 24 24 13.253907 0 24-10.742188 24-24v-63.996094h16v175.996094c0 4.417968 3.582031 8 8 8s8 3.582031 8 8c0 4.417968-3.582031 7.996094-8 7.996094zm0 0"/><path d="m343.992188 343.996094h16v96h-16zm0 0"/><path d="m415.988281 399.996094h16v40h-16zm0 0"/><path d="m447.988281 48.003906h16v16h-16zm0 0"/><path d="m463.988281 64.003906h16v16h-16zm0 0"/><path d="m447.988281 80.003906h16v16h-16zm0 0"/><path d="m431.988281 64.003906h16v16h-16zm0 0"/><path d="m391.988281.0078125h16v15.9999995h-16zm0 0"/><path d="m399.988281 152.003906h16v16h-16zm0 0"/><path d="m383.988281 168.003906h16v15.996094h-16zm0 0"/><path d="m415.988281 168.003906h16v15.996094h-16zm0 0"/><path d="m399.988281 184h16v16h-16zm0 0"/><path d="m463.988281 144.003906h16v16h-16zm0 0"/><path d="m319.992188 88.003906h16v16h-16zm0 0"/></svg>