<svg id="Layer_5" enable-background="new 0 0 64 64" height="512" viewBox="0 0 64 64" width="512" xmlns="http://www.w3.org/2000/svg"><g><path d="m23.211 24.658c.722 1.445 2.174 2.342 3.789 2.342s3.067-.897 3.789-2.342l.105-.211-1.789-.895-.105.212c-.381.762-1.147 1.236-2 1.236s-1.619-.474-2-1.236l-.105-.211-1.789.895z"/><circle cx="31" cy="19" r="1"/><circle cx="23" cy="19" r="1"/><path d="m51 27c-1.91 0-3.513 1.347-3.907 3.14-1.212.385-2.093 1.522-2.093 2.86v.172c0 .801.313 1.555.879 2.121l1.121 1.121v5.587l-3.614-4.818c-1.499-2-3.482-3.58-5.723-4.622 2.688-1.894 4.337-4.989 4.337-8.376 0-1.585-.374-3.17-1.082-4.585l-.047-.094c-.57-1.139-.871-2.415-.871-3.691v-1.815c0-7.168-5.832-13-13-13s-13 5.832-13 13v1.815c0 1.275-.301 2.552-.871 3.69l-.047.095c-.708 1.415-1.082 3-1.082 4.585 0 3.558 1.867 6.823 4.802 8.675-4.654 2.593-7.802 7.566-7.802 13.178v4.305c0 3.495 2.708 6.363 6.135 6.631-1.348 1.308-2.135 3.129-2.135 5.026v1h28v-1c0-2.191-1.047-4.285-2.8-5.6l-1.084-.813 1.396-6.283c.16-.721.281-1.452.362-2.188l4.725 5.591c1.231 1.458 3.031 2.293 4.937 2.293 3.565 0 6.464-2.899 6.464-6.464v-17.536c0-2.206-1.794-4-4-4zm-4 6c0-.552.448-1 1-1h1v-1c0-1.103.897-2 2-2s2 .897 2 2v4h-4.586l-1.121-1.121c-.187-.187-.293-.444-.293-.707zm-33-8.815c0-1.275.301-2.552.871-3.69l.047-.094c.708-1.415 1.082-3 1.082-4.585v-1.816c0-6.065 4.935-11 11-11s11 4.935 11 11v1.815c0 1.585.374 3.17 1.082 4.585l.047.094c.57 1.139.871 2.415.871 3.69 0 3.244-1.888 6.143-4.819 7.487-.652-.174-1.313-.321-1.988-.405l-1.538-.192-.254-.508c2.679-.983 4.599-3.551 4.599-6.566v-10h-1c-2.479 0-3-1.632-3-3h-2c0 1.039.253 2.103.823 2.985-2.315-.083-2.823-1.653-2.823-2.985h-2c0 1.037.244 2.103.811 2.984-2.304-.088-2.811-1.654-2.811-2.984h-2c0 .451.046.907.144 1.351l-.125.025c-2.329.466-4.019 2.528-4.019 4.903v6.721c0 3.015 1.92 5.584 4.599 6.567l-.245.491c-1.114.129-2.184.393-3.21.753-3.084-1.261-5.144-4.278-5.144-7.626zm19 30.815h-12.586l7.465-7.465c.723-.722 1.121-1.684 1.121-2.707 0-2.11-1.718-3.828-3.829-3.828h-.423c-1.442 0-2.741.792-3.402 2.072-.119.027-.232.068-.346.109v-4.181h12zm-12-9c0-.552.448-1 1-1h.618l.494-.989c.312-.623.939-1.011 1.636-1.011h.423c1.009 0 1.829.82 1.829 1.828 0 .481-.195.953-.535 1.293l-2.965 2.965-2.5-2.5zm1.981-31.777c.778 1.045 2.061 1.777 4.019 1.777v-1.752c.78 1.032 2.058 1.752 4 1.752v-1.762c.637.846 1.602 1.489 3 1.693v8.069c0 2.757-2.243 5-5 5h-4c-2.757 0-5-2.243-5-5v-6.721c0-1.426 1.015-2.663 2.412-2.942zm1.647 16.758c.124.007.246.019.372.019h4c.126 0 .248-.012.372-.019l.474.947-2.846 4.269-2.846-4.269zm-13.628 19.362v-4.305c0-6.6 5.013-12.18 11.51-12.97l2.622 3.932h-6.132v9 .42l-1.795 1.026c-.122-.858-.205-1.72-.205-2.585v-.699c0-1.989.319-3.956.948-5.846l-1.896-.633c-.698 2.094-1.052 4.274-1.052 6.479v.699c0 1.223.117 2.447.335 3.653l-2.832 1.618.992 1.736 6.337-3.621 2.253 2.253-3.136 3.136c-.879.88-2.048 1.364-3.292 1.364-2.568 0-4.657-2.089-4.657-4.657zm27.897 10.657h-23.794c.244-1.186.916-2.264 1.898-3l1.332-1h17.334l1.333 1c.981.736 1.653 1.814 1.897 3zm9.639-8c-1.316 0-2.559-.577-3.409-1.583l-6.127-7.251v-.004c0-2.205-.354-4.385-1.052-6.479l-1.896.633c.629 1.89.948 3.857.948 5.846v.699c0 1.348-.148 2.696-.44 4.01l-1.362 6.129h-.198v-18h-6.132l2.621-3.931 1.456.182c3.502.438 6.725 2.308 8.841 5.131l5.214 6.951v3.667h2v-12h4v11.536c0 2.461-2.003 4.464-4.464 4.464z"/></g></svg>