<svg id="Capa_1" enable-background="new 0 0 510 510" height="512" viewBox="0 0 510 510" width="512" xmlns="http://www.w3.org/2000/svg"><g id="XMLID_3111_"><path id="XMLID_3142_" d="m75 0v480l90 15 90-15 15-255-15-225c-10 0-170 0-180 0z" fill="#b36859"/><path id="XMLID_3139_" d="m435 0c-10 0-170 0-180 0v480l75 15 105-15c0-13.5 0-466.5 0-480z" fill="#99453d"/><path id="XMLID_3136_" d="m135 60v120h120l15-60-15-60c-14.5 0-105.4 0-120 0z" fill="#99453d"/><path id="XMLID_3133_" d="m375 60c-14.5 0-105.4 0-120 0v120h120c0-14.5 0-105.4 0-120z" fill="#802626"/><path id="XMLID_3130_" d="m165 90v60h90l15-30-15-30c-10.9 0-79 0-90 0z" fill="#a7d3fd"/><path id="XMLID_3127_" d="m345 90c-10.9 0-79 0-90 0v60h90c0-7.3 0-52.7 0-60z" fill="#85c3fc"/><path id="XMLID_3124_" d="m285 270h60v30h30c0-7.3 0-52.7 0-60-10.9 0-79 0-90 0z" fill="#802626"/><path id="XMLID_3121_" d="m165 375v30h90l15-15-15-15c-10.9 0-79 0-90 0z" fill="#92e993"/><path id="XMLID_3118_" d="m287.5 426.7c8.7 5.8 16.2 10.8 25 16.6 4.3-6.5 31.2-46.8 35.5-53.3-4.3-6.5-31.2-46.8-35.5-53.3-8.7 5.8-16.2 10.8-25 16.6 5.1 7.6 9.4 14.1 14.5 21.7-18.8 0-21.1 0-47 0v30h47c-5.1 7.6-9.4 14.1-14.5 21.7z" fill="#00cab0"/><path id="XMLID_3115_" d="m75 480v30h180l15-15-15-15c-10 0-170 0-180 0z" fill="#99453d"/><path id="XMLID_1_" d="m255 480v30h180c0-10.5 0-19.5 0-30-10 0-170 0-180 0z" fill="#802626"/></g></svg>