<?xml version="1.0" encoding="iso-8859-1"?>
<!-- Generator: Adobe Illustrator 19.0.0, SVG Export Plug-In . SVG Version: 6.00 Build 0)  -->
<svg version="1.1" id="Capa_1" xmlns="http://www.w3.org/2000/svg" xmlns:xlink="http://www.w3.org/1999/xlink" x="0px" y="0px"
	 viewBox="0 0 512 512" style="enable-background:new 0 0 512 512;" xml:space="preserve">
<circle style="fill:#F94616;" cx="256" cy="256" r="256"/>
<path style="fill:#DB2C09;" d="M512,256c0-10.491-0.646-20.83-1.872-30.99l-99.507-99.507L78,361l149.402,149.401
	C236.793,511.445,246.331,512,256,512C397.385,512,512,397.385,512,256z"/>
<rect x="101.38" y="125.5" style="fill:#37474F;" width="309.24" height="215.99"/>
<rect x="255.95" y="125.5" style="fill:#263238;" width="154.67" height="215.99"/>
<rect x="119.3" y="141.78" style="fill:#E0F4FD;" width="273.4" height="183.45"/>
<rect x="255.95" y="141.78" style="fill:#B2E4FB;" width="136.75" height="183.45"/>
<path style="fill:#37474F;" d="M323.467,259.699h-13.086v-37.95c0-29.985-24.395-54.38-54.38-54.38s-54.38,24.395-54.38,54.38v37.95
	h-13.086v-37.95c0-37.201,30.265-67.467,67.467-67.467s67.467,30.265,67.467,67.467v37.95H323.467z"/>
<g>
	<path style="fill:#263238;" d="M256,154.283c-0.016,0-0.032,0.001-0.048,0.001v13.086c0.016,0,0.031-0.001,0.048-0.001
		c29.985,0,54.38,24.395,54.38,54.38v37.95h13.086v-37.95C323.467,184.548,293.202,154.283,256,154.283z"/>
	<path style="fill:#263238;" d="M285.517,300.611h-37.223v-13.086h37.223c13.389,0,24.282-10.893,24.282-24.282h13.086
		C322.885,283.848,306.122,300.611,285.517,300.611z"/>
</g>
<path style="fill:#3F51B4;" d="M202.076,275.693h-14.309c-10.567,0-19.133-8.566-19.133-19.133v-22.242
	c0-10.567,8.566-19.133,19.133-19.133h14.309V275.693z"/>
<path style="fill:#303F9E;" d="M324.234,275.693h-14.309v-60.509h14.309c10.567,0,19.133,8.566,19.133,19.133v22.242
	C343.367,267.127,334.801,275.693,324.234,275.693z"/>
<path style="fill:#DB2C09;" d="M252.511,308.026h-15.413c-7.629,0-13.813-6.184-13.813-13.813l0,0
	c0-7.629,6.184-13.813,13.813-13.813h15.413c7.629,0,13.813,6.184,13.813,13.813l0,0
	C266.324,301.842,260.14,308.026,252.511,308.026z"/>
<path style="fill:#DC2C00;" d="M266.324,294.213c0-6.438-4.411-11.832-10.371-13.363v26.727
	C261.913,306.045,266.324,300.652,266.324,294.213z"/>
<rect x="78" y="319.67" style="fill:#455A64;" width="356" height="41.33"/>
<rect x="255.95" y="319.67" style="fill:#37474F;" width="178.05" height="41.33"/>
<g>
</g>
<g>
</g>
<g>
</g>
<g>
</g>
<g>
</g>
<g>
</g>
<g>
</g>
<g>
</g>
<g>
</g>
<g>
</g>
<g>
</g>
<g>
</g>
<g>
</g>
<g>
</g>
<g>
</g>
</svg>
