<svg xmlns="http://www.w3.org/2000/svg" width="113.053" height="112.925" viewBox="0 0 113.053 112.925">
  <g id="Group_16" data-name="Group 16" transform="translate(-129.659 -433.054)">
    <path id="Path_55" data-name="Path 55" d="M129.662,523.222c.283-1.362.485-2.747.861-4.083a21.147,21.147,0,1,1,23.116,26.639,3.362,3.362,0,0,0-.606.2l-4.194,0a4.647,4.647,0,0,0-.622-.184c-8.3-1.286-14.056-5.832-17.139-13.623a41.852,41.852,0,0,1-1.419-5.856Zm15.808,6.237c-1.326-1.388-2.521-2.681-3.764-3.927a1.77,1.77,0,0,0-2.716-.2,1.815,1.815,0,0,0,.249,2.719c1.527,1.542,3.069,3.068,4.609,4.6,1.329,1.319,2.083,1.312,3.437-.037q6.6-6.584,13.2-13.172a4.609,4.609,0,0,0,.592-.651,1.638,1.638,0,0,0-.217-2.293,1.615,1.615,0,0,0-2.213-.148,6.249,6.249,0,0,0-.81.744C153.78,521.143,149.727,525.2,145.47,529.459Z" fill="#fff"/>
    <path id="Path_56" data-name="Path 56" d="M224,433.055a2.765,2.765,0,0,1,1.122,2.562c-.053,4.634-.031,9.268-.036,13.9,0,.36,0,.72,0,1.239l-86.515-.093c0-.458-.013-1.041.005-1.624a1.78,1.78,0,0,1,1.683-1.952q11.625-1.977,23.253-3.941l34.446-5.825q11.952-2.023,23.9-4.053a3.422,3.422,0,0,0,.594-.217Z" fill="#fff"/>
    <path id="Path_57" data-name="Path 57" d="M242.685,502.6a2.784,2.784,0,0,1-2.56,1.121c-8.9-.046-17.795-.039-26.692-.05-2.02,0-2.529-.516-2.528-2.547q.012-11.637.026-23.273c0-1.882.548-2.43,2.423-2.428,8.934.007,17.869.033,26.8.007a2.765,2.765,0,0,1,2.555,1.127Zm-15.816-7.746a5.291,5.291,0,1,0-5.351-5.29A5.311,5.311,0,0,0,226.869,494.851Z" fill="#fff"/>
    <path id="Path_58" data-name="Path 58" d="M235.655,471.911H234.3q-10.592-.012-21.183-.021a5.309,5.309,0,0,0-5.72,5.706q-.021,11.97-.025,23.941a5.3,5.3,0,0,0,5.655,5.661q10.647.024,21.293.025l1.293,0v.954q-.009,8.109-.02,16.218c0,1.645-.615,2.247-2.277,2.245q-28.354-.025-56.708-.058h-.9c.234-9.734-3.352-17.554-11.592-22.764s-16.847-5.092-25.6-.664c0-.474,0-.858,0-1.242q.024-22.561.048-45.124c0-2.17.474-2.636,2.661-2.634l91.792.1c2.185,0,2.658.473,2.656,2.642q-.006,6.9-.015,13.79C235.656,471.046,235.656,471.408,235.655,471.911Zm-23.782-10.617c-.258,0-.515-.01-.772,0a1.769,1.769,0,1,0,.02,3.524c.477.017.956.019,1.433,0a1.769,1.769,0,1,0-.02-3.525C212.314,461.286,212.093,461.293,211.873,461.294Zm7.1.021v-.009c-.331,0-.663-.023-.992,0a1.753,1.753,0,0,0-1.734,1.776,1.735,1.735,0,0,0,1.668,1.726,12.4,12.4,0,0,0,1.984,0,1.75,1.75,0,0,0,.065-3.484A6.06,6.06,0,0,0,218.978,461.315Zm6.948,3.522c.257,0,.515.011.772,0a1.788,1.788,0,0,0,1.894-1.737,1.767,1.767,0,0,0-1.841-1.785c-.44-.023-.883-.012-1.324-.006-1.315.02-2.1.664-2.113,1.737s.774,1.761,2.061,1.792C225.558,464.841,225.742,464.838,225.926,464.837Zm-46.04,54.676v.006c.33,0,.663.022.992,0a1.756,1.756,0,1,0-.016-3.512,13.306,13.306,0,0,0-1.874.008,1.733,1.733,0,0,0-1.639,1.752A1.757,1.757,0,0,0,179,519.507,8.362,8.362,0,0,0,179.886,519.513Zm7.125.017c.257,0,.515.01.772,0a1.769,1.769,0,1,0-.032-3.525c-.477-.016-.956-.018-1.434,0a1.769,1.769,0,1,0,.032,3.524C186.569,519.537,186.79,519.53,187.011,519.53Zm7.171-3.508v-.013c-.258,0-.515-.009-.772,0a1.768,1.768,0,1,0-.028,3.523,13.127,13.127,0,0,0,1.763-.016,1.75,1.75,0,0,0,.028-3.485A6.55,6.55,0,0,0,194.182,516.022Z" fill="#fff"/>
    <path id="Path_59" data-name="Path 59" d="M226.787,491.315a1.757,1.757,0,1,1,1.777-1.738A1.774,1.774,0,0,1,226.787,491.315Z" fill="#fff"/>
  </g>
</svg>
