<svg height="512pt" viewBox="0 0 512 512" width="512pt" xmlns="http://www.w3.org/2000/svg"><path d="m512 256c0 113.476562-73.820312 209.699219-176.066406 243.273438-25.148438 8.265624-52.015625 12.726562-79.933594 12.726562s-54.792969-4.472656-79.945312-12.738281c-102.234376-33.570313-176.054688-129.796875-176.054688-243.261719 0-141.386719 114.613281-256 256-256s256 114.613281 256 256zm0 0" fill="#273647"/><path d="m456.527344 224.257812h-84.136719v-95.761718h-20.898437v95.761718h-85.046876v-162.085937h-20.898437v162.085937h-158.476563v-122.3125h-20.898437v132.761719c0 5.769531 4.675781 10.449219 10.449219 10.449219h168.925781v46.828125h20.898437v-46.828125h190.082032zm0 0" fill="#fff"/><path d="m147.085938 101.945312c0 38.914063-31.546876 70.464844-70.464844 70.464844-38.917969 0-70.46875-31.550781-70.46875-70.464844 0-38.917968 31.550781-70.46875 70.46875-70.46875 38.917968 0 70.464844 31.550782 70.464844 70.46875zm0 0" fill="#36507d"/><path d="m494.222656 234.707031c0 25.679688-20.816406 46.496094-46.496094 46.496094-25.679687 0-46.5-20.816406-46.5-46.496094 0-25.679687 20.820313-46.496093 46.5-46.496093 25.679688 0 46.496094 20.816406 46.496094 46.496093zm0 0" fill="#ffe16b"/><path d="m408.4375 128.496094c0 25.679687-20.816406 46.5-46.496094 46.5-25.679687 0-46.5-20.820313-46.5-46.5 0-25.679688 20.820313-46.496094 46.5-46.496094 25.679688 0 46.496094 20.816406 46.496094 46.496094zm0 0" fill="#56e6bf"/><path d="m302.496094 46.5c0 25.679688-20.820313 46.496094-46.5 46.496094-25.679688 0-46.496094-20.816406-46.496094-46.496094s20.816406-46.5 46.496094-46.5c25.679687 0 46.5 20.820312 46.5 46.5zm0 0" fill="#ff5787"/><path d="m379.539062 405.074219c0 37.742187-16.929687 71.546875-43.605468 94.199219-25.148438 8.265624-52.015625 12.726562-79.933594 12.726562s-54.792969-4.472656-79.945312-12.738281c-26.675782-22.652344-43.601563-56.445313-43.601563-94.1875 0-68.230469 55.316406-123.535157 123.546875-123.535157s123.539062 55.304688 123.539062 123.535157zm0 0" fill="#f78c45"/><path d="m351.964844 405.082031c0 53-42.964844 95.96875-95.96875 95.96875-53 0-95.96875-42.96875-95.96875-95.96875 0-53.003906 42.96875-95.972656 95.96875-95.972656 53.003906 0 95.96875 42.96875 95.96875 95.972656zm0 0" fill="#ffe16b"/><path d="m267.300781 390.582031v-31.980469c5.308594.867188 8.851563 2.640626 11.800781 4.117188 2.585938 1.292969 4.816407 2.410156 7.347657 2.410156 7.457031 0 11.582031-8.292968 11.582031-14.019531 0-3.929687-2.21875-9.410156-12.800781-13.195313-5.007813-1.789062-11.402344-3.019531-17.933594-3.476562v-1.882812c0-4.074219-4.183594-7.648438-8.957031-7.648438-4.921875 0-8.773438 3.359375-8.773438 7.648438v2.5c-9.324218 1.410156-17.328125 4.71875-23.273437 9.640624-8.183594 6.777344-12.335938 16.25-12.335938 28.152344 0 25.277344 19.191407 33.199219 35.609375 39.082032v37.90625c-8.609375-1.519532-13.542968-5.71875-17.601562-9.171876-3.15625-2.683593-5.882813-5.003906-9.421875-5.003906-6.625 0-11.957031 7.671875-11.957031 14.019532 0 5.867187 4.609374 12.289062 12.328124 17.179687 7.332032 4.648437 16.695313 7.492187 26.652344 8.140625v2.605469c0 4.289062 3.851563 7.648437 8.773438 7.648437 4.773437 0 8.957031-3.574218 8.957031-7.648437v-3.535157c21.726563-4.082031 34.109375-19.042968 34.109375-41.445312 0-26.101562-17.210938-35.609375-34.105469-42.042969zm8.691407 44.109375c0 7.125-3.300782 11.894532-9.816407 14.226563v-29.910157c6.160157 3.40625 9.816407 7.753907 9.816407 15.683594zm-25.300782-75.492187v25.195312c-7.648437-3.34375-11.316406-6.742187-11.316406-13.421875 0-2.371094 0-9.144531 11.316406-11.773437zm0 0" fill="#f78c45"/></svg>