<svg xmlns="http://www.w3.org/2000/svg" height="512pt" version="1.1" viewBox="0 0 512 512" width="512pt">
<g id="surface1">
<path d="M 256 91 C 165.019531 91 91 165.019531 91 256 C 91 346.980469 165.019531 421 256 421 C 346.980469 421 421 346.980469 421 256 C 421 165.019531 346.980469 91 256 91 Z M 135.972656 271 C 127.6875 271 120.972656 264.285156 120.972656 256 C 120.972656 247.714844 127.6875 241 135.972656 241 C 144.257812 241 150.972656 247.714844 150.972656 256 C 150.972656 264.285156 144.257812 271 135.972656 271 Z M 241 241 L 271 241 C 304.089844 241 331 267.910156 331 301 C 331 334.089844 304.089844 361 271 361 L 271 376 C 271 384.289062 264.289062 391 256 391 C 247.710938 391 241 384.289062 241 376 L 241 361 L 196 361 C 187.710938 361 181 354.289062 181 346 C 181 337.710938 187.710938 331 196 331 L 271 331 C 287.539062 331 301 317.539062 301 301 C 301 284.460938 287.539062 271 271 271 L 241 271 C 207.910156 271 181 244.089844 181 211 C 181 177.910156 207.910156 151 241 151 L 241 136 C 241 127.710938 247.710938 121 256 121 C 264.289062 121 271 127.710938 271 136 L 271 151 L 316 151 C 324.289062 151 331 157.710938 331 166 C 331 174.289062 324.289062 181 316 181 L 241 181 C 224.460938 181 211 194.460938 211 211 C 211 227.539062 224.460938 241 241 241 Z M 390.972656 256 C 390.972656 264.285156 384.257812 271 375.972656 271 C 367.6875 271 360.972656 264.285156 360.972656 256 C 360.972656 247.714844 367.6875 241 375.972656 241 C 384.257812 241 390.972656 247.714844 390.972656 256 Z M 390.972656 256 " style=" stroke:none;fill-rule:nonzero;fill:rgb(0%,0%,0%);fill-opacity:1;" />
<path d="M 256 0 C 115.390625 0 0 115.390625 0 256 C 0 396.609375 115.390625 512 256 512 C 396.609375 512 512 396.609375 512 256 C 512 115.390625 396.609375 0 256 0 Z M 256 451 C 148.480469 451 61 363.519531 61 256 C 61 148.480469 148.480469 61 256 61 C 363.519531 61 451 148.480469 451 256 C 451 363.519531 363.519531 451 256 451 Z M 256 451 " style=" stroke:none;fill-rule:nonzero;fill:rgb(0%,0%,0%);fill-opacity:1;" />
</g>
</svg>